<svg width="16" height="18" viewBox="0 0 16 18" fill="none" xmlns="http://www.w3.org/2000/svg">
<path d="M7.99588 0C11.6038 0 14.5497 2.84608 14.6736 6.45791L14.6773 6.68146V10.3313L15.9067 13.1429C15.9683 13.2836 16 13.4354 16 13.589C16 14.204 15.5015 14.7026 14.8864 14.7026L10.6685 14.7039C10.6685 16.1799 9.47195 17.3765 7.99588 17.3765C6.57255 17.3765 5.40913 16.2638 5.32784 14.8609L5.3229 14.7019L1.11387 14.7026C0.961225 14.7026 0.810215 14.6712 0.670208 14.6104C0.106114 14.3653 -0.152547 13.7095 0.0924751 13.1454L1.31443 10.3321V6.68137C1.31496 2.98003 4.30067 0 7.99588 0ZM9.33181 14.7019L6.65958 14.7039C6.65958 15.4419 7.25789 16.0402 7.99588 16.0402C8.69048 16.0402 9.26135 15.5103 9.32602 14.8326L9.33181 14.7019ZM7.99588 1.33629C5.03808 1.33629 2.65115 3.71869 2.65072 6.68146V10.6098L1.45342 13.3663H14.5459L13.341 10.6107L13.3411 6.69292L13.3378 6.4923C13.2389 3.61171 10.8837 1.33629 7.99588 1.33629Z" fill="#28425B"/>
</svg>
