<svg width="16" height="18" viewBox="0 0 16 18" fill="none" xmlns="http://www.w3.org/2000/svg">
<path d="M6.71067 0.471052C7.45547 -0.157019 8.54453 -0.157019 9.28933 0.471061L15.2893 5.53071C15.7399 5.91072 16 6.47017 16 7.05965V15.7732C16 16.6323 15.3036 17.3288 14.4444 17.3288H11.3333C10.4742 17.3288 9.77778 16.6323 9.77778 15.7732V10.8843C9.77778 10.7616 9.67831 10.6621 9.55556 10.6621H6.44444C6.32169 10.6621 6.22221 10.7616 6.22221 10.8843V15.7732C6.22221 16.6323 5.52578 17.3288 4.66667 17.3288H1.55556C0.696444 17.3288 0 16.6323 0 15.7732V7.05965C0 6.47017 0.260044 5.91072 0.710684 5.53071L6.71067 0.471052ZM8.42978 1.49035C8.18151 1.28099 7.81849 1.28099 7.57022 1.49035L1.57023 6.55C1.42002 6.67667 1.33333 6.86316 1.33333 7.05965V15.7732C1.33333 15.896 1.43283 15.9954 1.55556 15.9954H4.66667C4.7894 15.9954 4.88888 15.896 4.88888 15.7732V10.8843C4.88888 10.0252 5.58533 9.32875 6.44444 9.32875H9.55556C10.4147 9.32875 11.1111 10.0252 11.1111 10.8843V15.7732C11.1111 15.896 11.2106 15.9954 11.3333 15.9954H14.4444C14.5672 15.9954 14.6667 15.896 14.6667 15.7732V7.05965C14.6667 6.86316 14.58 6.67667 14.4298 6.55L8.42978 1.49035Z" fill="#28425B"/>
</svg>
