<svg width="203" height="203" viewBox="0 0 203 203" fill="none" xmlns="http://www.w3.org/2000/svg">
<circle cx="100.609" cy="77.6928" r="70.8987" fill="#EF7760"/>
<path d="M149.57 57.6479C149.57 56.7549 148.845 56.0269 147.949 56.0269C147.055 56.0269 146.328 56.7549 146.328 57.6479V64.0155H149.569L149.57 57.6479Z" fill="#BACBF6"/>
<path d="M146.329 73.6218C146.329 74.5148 147.055 75.2428 147.95 75.2428C148.844 75.2428 149.571 74.5149 149.571 73.6218V67.2543H146.33L146.329 73.6218Z" fill="#BACBF6"/>
<path d="M139.963 64.0143C139.069 64.0143 138.342 64.7423 138.342 65.6353C138.342 66.5283 139.068 67.2563 139.963 67.2563H146.33V64.0155L139.963 64.0143Z" fill="#BACBF6"/>
<path d="M155.937 64.0143H149.571V67.2551H155.937C156.831 67.2551 157.558 66.5272 157.558 65.6341C157.558 64.7423 156.83 64.0143 155.937 64.0143V64.0143Z" fill="#BACBF6"/>
<path d="M55.5471 77.9684C55.5471 77.0753 54.8214 76.3474 53.9261 76.3474C53.0319 76.3474 52.3051 77.0753 52.3051 77.9684V84.3359H55.5459L55.5471 77.9684Z" fill="#C7B9FF"/>
<path d="M61.9106 84.3348H55.5453V87.4966H52.3045V84.3348H45.9369C45.0428 84.3348 44.3159 85.0628 44.3159 85.9558C44.3159 86.8488 45.0416 87.5768 45.9369 87.5768H52.3045V93.863C52.3045 94.756 53.0302 95.484 53.9255 95.484C54.8196 95.484 55.5465 94.7561 55.5465 93.863V87.5768H61.9118C62.8059 87.5768 63.5328 86.8488 63.5328 85.9558C63.5316 85.0617 62.8059 84.3348 61.9106 84.3348H61.9106Z" fill="#C7B9FF"/>
<path d="M101.284 5.55933C61.5199 5.55933 29.1698 37.9094 29.1698 77.6735C29.1698 117.438 61.5199 149.788 101.284 149.788C141.048 149.788 173.398 117.438 173.398 77.6735C173.398 37.9094 141.048 5.55933 101.284 5.55933V5.55933ZM101.284 146.546C63.3082 146.546 32.4109 115.649 32.4109 77.6735C32.4109 39.6978 63.3082 8.80041 101.284 8.80041C139.26 8.80041 170.157 39.6978 170.157 77.6735C170.157 115.649 139.26 146.546 101.284 146.546Z" fill="#EF7760"/>
<path d="M127.045 79.803C127 79.7962 125.897 79.6617 124.235 79.6617C120.677 79.6617 114.072 80.297 109.823 84.5462C104.639 89.7302 104.812 98.3031 105.006 100.956L102.905 103.058V80.2586C116.835 79.4142 127.919 67.8467 127.919 53.7078V40.0434C127.919 39.1493 127.195 38.4224 126.298 38.4224C122.878 38.4224 119.615 39.0939 116.608 40.2751C114.252 26.8165 102.622 19.8577 102.102 19.5548C102.036 19.5163 101.961 19.5107 101.892 19.4835C101.794 19.4429 101.698 19.4022 101.594 19.3818C101.49 19.3626 101.389 19.3626 101.286 19.3626C101.181 19.3626 101.08 19.3626 100.976 19.3818C100.871 19.4033 100.775 19.4429 100.677 19.4835C100.609 19.5107 100.536 19.5163 100.471 19.5548C99.9511 19.8577 88.317 26.8209 85.9623 40.2751C82.9542 39.095 79.6943 38.4247 76.2738 38.4247C75.3774 38.4247 74.6528 39.1504 74.6528 40.0457V53.71C74.6528 67.849 85.7353 79.4164 99.6673 80.2609V118.257L97.567 116.156C97.7603 113.503 97.9332 104.93 92.7502 99.7465C88.5009 95.496 81.8972 94.862 78.3387 94.862C76.6759 94.862 75.576 94.9965 75.5285 95.0033C74.7926 95.096 74.2127 95.6759 74.1223 96.4118C74.0658 96.8639 72.8099 107.576 78.8676 113.631C83.1169 117.882 89.7183 118.516 93.278 118.516C94.1043 118.516 94.7905 118.483 95.2777 118.448L99.6624 122.837V134.39C99.6624 135.284 100.387 136.011 101.283 136.011C102.18 136.011 102.904 135.285 102.904 134.39V107.64L107.296 103.248C107.784 103.282 108.471 103.316 109.296 103.316C112.853 103.316 119.457 102.681 123.706 98.4317C129.762 92.376 128.508 81.6646 128.451 81.2122C128.358 80.4741 127.779 79.8942 127.044 79.8015L127.045 79.803ZM90.053 108.645C89.4188 108.011 88.3947 108.011 87.7617 108.645C87.1275 109.279 87.1275 110.303 87.7617 110.936L92.0639 115.239C88.8604 115.105 84.1817 114.365 81.1533 111.337C77.3257 107.509 77.1324 100.92 77.2432 98.1223C79.9528 98.015 86.5746 98.1563 90.4541 102.036C93.4518 105.033 94.2103 109.704 94.3494 112.941L90.053 108.645ZM124.678 41.7197V53.7088C124.678 66.064 115.051 76.2106 102.904 77.046V65.0569C102.905 52.7029 112.53 42.5563 124.678 41.7197ZM99.6631 77.0446C87.5168 76.2081 77.8894 66.0617 77.8894 53.7074V41.7182C90.0377 42.5547 99.6631 52.7012 99.6631 65.0555V77.0446ZM101.284 55.9955C99.0595 49.8733 94.6758 44.7808 89.0282 41.6858C90.5011 31.1358 98.6773 24.6913 101.286 22.8896C103.895 24.6824 112.06 31.0973 113.537 41.6881C107.891 44.7831 103.509 49.8745 101.284 55.9955ZM121.414 96.1386C118.383 99.1693 113.705 99.913 110.5 100.044L114.805 95.7384C115.439 95.1043 115.439 94.0801 114.805 93.4471C114.17 92.8129 113.146 92.8129 112.513 93.4471L108.218 97.7427C108.357 94.5051 109.115 89.8356 112.113 86.8376C115.537 83.4136 121.177 82.9026 124.233 82.9026C124.64 82.9026 125.01 82.9127 125.329 82.9252C125.442 85.7173 125.256 92.2953 121.414 96.1386Z" fill="#F8CDDB"/>
</svg>
