<svg width="24" height="24" viewBox="0 0 24 24" fill="none" xmlns="http://www.w3.org/2000/svg">
<circle cx="11.92" cy="9.20505" r="8.4" fill="#EF7760"/>
<path d="M17.721 6.83006C17.721 6.72425 17.635 6.638 17.529 6.638C17.423 6.638 17.3369 6.72425 17.3369 6.83006V7.58448H17.7209L17.721 6.83006Z" fill="#BACBF6"/>
<path d="M17.3369 8.72262C17.3369 8.82842 17.4229 8.91468 17.529 8.91468C17.6349 8.91468 17.721 8.82843 17.721 8.72262V7.9682H17.3371L17.3369 8.72262Z" fill="#BACBF6"/>
<path d="M16.5827 7.58435C16.4767 7.58435 16.3906 7.6706 16.3906 7.77641C16.3906 7.88221 16.4766 7.96846 16.5827 7.96846H17.3371V7.58449L16.5827 7.58435Z" fill="#BACBF6"/>
<path d="M18.4752 7.58433H17.7211V7.9683H18.4752C18.5811 7.9683 18.6673 7.88205 18.6673 7.77624C18.6673 7.67057 18.581 7.58432 18.4752 7.58432V7.58433Z" fill="#BACBF6"/>
<path d="M6.58125 9.23762C6.58125 9.13182 6.49527 9.04556 6.3892 9.04556C6.28326 9.04556 6.19714 9.13181 6.19714 9.23762V9.99204H6.58111L6.58125 9.23762Z" fill="#C7B9FF"/>
<path d="M7.33508 9.99188H6.58093V10.3665H6.19697V9.99188H5.44254C5.33661 9.99188 5.25049 10.0781 5.25049 10.1839C5.25049 10.2897 5.33647 10.376 5.44254 10.376H6.19697V11.1208C6.19697 11.2266 6.28295 11.3128 6.38902 11.3128C6.49496 11.3128 6.58108 11.2266 6.58108 11.1208V10.376H7.33522C7.44116 10.376 7.52728 10.2897 7.52728 10.1839C7.52715 10.078 7.44116 9.99188 7.33509 9.99188H7.33508Z" fill="#C7B9FF"/>
<path d="M12 0.658661C7.28885 0.658661 3.45605 4.49146 3.45605 9.20266C3.45605 13.9139 7.28885 17.7467 12 17.7467C16.7112 17.7467 20.544 13.9139 20.544 9.20266C20.544 4.49146 16.7112 0.658661 12 0.658661V0.658661ZM12 17.3627C7.50074 17.3627 3.84005 13.702 3.84005 9.20266C3.84005 4.70335 7.50074 1.04266 12 1.04266C16.4994 1.04266 20.16 4.70335 20.16 9.20266C20.16 13.702 16.4994 17.3627 12 17.3627Z" fill="#EF7760"/>
<path d="M15.0521 9.45498C15.0468 9.45417 14.9162 9.43824 14.7192 9.43824C14.2977 9.43824 13.5152 9.5135 13.0117 10.0169C12.3975 10.6311 12.418 11.6469 12.441 11.9612L12.1921 12.2102V9.50896C13.8425 9.40891 15.1557 8.03841 15.1557 6.36324V4.74431C15.1557 4.63837 15.0699 4.55225 14.9637 4.55225C14.5584 4.55225 14.1719 4.63181 13.8155 4.77176C13.5364 3.1772 12.1586 2.35273 12.097 2.31684C12.0891 2.31228 12.0802 2.31161 12.0721 2.3084C12.0604 2.30358 12.049 2.29875 12.0367 2.29634C12.0244 2.29407 12.0125 2.29407 12.0003 2.29407C11.9878 2.29407 11.9759 2.29407 11.9636 2.29634C11.9511 2.29889 11.9397 2.30358 11.9281 2.3084C11.92 2.31161 11.9113 2.31228 11.9037 2.31684C11.8421 2.35273 10.4637 3.17771 10.1847 4.77176C9.82833 4.63194 9.4421 4.55252 9.03684 4.55252C8.93063 4.55252 8.84479 4.6385 8.84479 4.74457V6.36351C8.84479 8.03868 10.1578 9.40918 11.8085 9.50922V14.0109L11.5596 13.7621C11.5825 13.4478 11.603 12.4321 10.989 11.8179C10.4855 11.3143 9.7031 11.2391 9.28149 11.2391C9.08448 11.2391 8.95417 11.2551 8.94855 11.2559C8.86136 11.2669 8.79265 11.3356 8.78194 11.4228C8.77524 11.4763 8.62645 12.7454 9.34416 13.4629C9.84761 13.9665 10.6297 14.0416 11.0515 14.0416C11.1494 14.0416 11.2307 14.0377 11.2884 14.0336L11.8079 14.5536V15.9224C11.8079 16.0283 11.8937 16.1144 12 16.1144C12.1062 16.1144 12.192 16.0284 12.192 15.9224V12.7531L12.7123 12.2328C12.7702 12.2368 12.8515 12.2408 12.9492 12.2408C13.3707 12.2408 14.1531 12.1655 14.6566 11.6621C15.374 10.9446 15.2255 9.67553 15.2188 9.62194C15.2077 9.53449 15.1391 9.46578 15.052 9.4548L15.0521 9.45498ZM10.6694 12.8722C10.5943 12.797 10.4729 12.797 10.3979 12.8722C10.3228 12.9473 10.3228 13.0686 10.3979 13.1436L10.9076 13.6534C10.5281 13.6376 9.97376 13.5498 9.61496 13.1911C9.16147 12.7376 9.13856 11.9569 9.1517 11.6254C9.47272 11.6127 10.2573 11.6294 10.7169 12.0891C11.0721 12.4442 11.1619 12.9976 11.1784 13.3811L10.6694 12.8722ZM14.7717 4.94291V6.36337C14.7717 7.82719 13.6311 9.02935 12.1919 9.12834V7.70788C12.1921 6.24419 13.3325 5.04203 14.7717 4.94291ZM11.808 9.12816C10.3689 9.02906 9.22826 7.82692 9.22826 6.36319V4.94274C10.6676 5.04184 11.808 6.24398 11.808 7.70771V9.12816ZM12 6.63429C11.7365 5.90894 11.2171 5.30558 10.548 4.9389C10.7225 3.68894 11.6912 2.9254 12.0003 2.71194C12.3094 2.92435 13.2767 3.68438 13.4518 4.93917C12.7828 5.30586 12.2636 5.90908 12 6.63429ZM14.385 11.3904C14.0259 11.7495 13.4716 11.8376 13.0919 11.8531L13.6019 11.343C13.6771 11.2679 13.6771 11.1465 13.6019 11.0715C13.5268 10.9964 13.4055 10.9964 13.3305 11.0715L12.8215 11.5804C12.838 11.1969 12.9279 10.6436 13.283 10.2884C13.6887 9.88276 14.3569 9.82221 14.719 9.82221C14.7672 9.82221 14.811 9.82342 14.8488 9.82489C14.8622 10.1557 14.8402 10.9351 14.385 11.3904Z" fill="#F8CDDB"/>
</svg>
