<svg width="104" height="24" viewBox="0 0 104 24" fill="none" xmlns="http://www.w3.org/2000/svg">
<path d="M33.3794 7.392C34.4154 7.532 35.1294 6.888 34.8634 6.076C34.5274 4.69 33.2534 4.06 31.4894 4.06C29.0394 4.06 27.9614 5.264 27.9614 6.748C27.9614 10.01 34.2054 9.702 34.2054 12.432C34.2054 13.258 33.2534 13.846 32.1894 13.846C30.8874 13.846 29.4034 12.992 29.1514 10.668H28.9694C27.9194 10.668 27.3314 11.41 27.7514 12.152C28.4654 13.566 30.0474 14.14 31.8254 14.14C33.9954 14.14 35.3254 13.16 35.3254 11.634C35.3254 8.736 28.9694 8.75 28.9694 6.062C28.9694 5.082 30.0334 4.382 31.1114 4.382C32.2594 4.382 33.4214 5.194 33.2394 7.378L33.3794 7.392ZM40.2993 7.63C41.1113 7.63 41.5173 8.232 41.5173 9.352V14H42.9593V9.786C42.9593 8.022 42.2313 6.916 40.7473 6.916C39.6553 6.916 38.7033 7.826 38.1153 8.904V4.186H36.6593V14H38.1153V9.436C38.5633 8.358 39.5713 7.63 40.2993 7.63ZM51.071 11.592C50.735 12.642 49.531 13.37 48.705 13.37C46.857 13.37 45.849 11.984 45.597 10.528H51.309V10.01C51.309 8.414 49.993 6.888 48.117 6.888C46.059 6.888 44.239 8.19 44.239 10.514C44.239 12.838 46.059 14.14 48.117 14.14C49.825 14.14 50.693 13.188 51.323 11.676L51.071 11.592ZM45.555 10.22C45.401 8.722 46.045 7.252 47.375 7.252C48.873 7.252 49.965 8.582 49.839 10.22H45.555ZM55.1624 6.86C53.1744 6.86 52.2224 7.728 52.2224 8.974C52.2224 11.452 57.3044 10.57 57.3044 12.712C57.3044 13.37 56.5764 13.846 55.7364 13.846C54.7844 13.846 53.6644 13.244 53.2724 11.578C52.4604 11.676 52.0964 12.012 52.0964 12.418C52.0964 13.174 53.3984 14.154 55.4284 14.154C57.4584 14.154 58.3824 13.272 58.3824 12.082C58.3824 9.534 53.2724 10.43 53.2724 8.246C53.2724 7.574 54.0144 7.126 54.7844 7.126C55.6944 7.126 56.6324 7.728 56.5204 9.226C57.4864 9.156 57.9064 8.764 57.9064 8.33C57.9064 7.658 56.9404 6.86 55.1624 6.86ZM62.3728 14H63.7588L65.6348 8.47L67.6508 14H69.0228L72.3548 4.2H69.8768L70.0308 4.466C70.7308 5.6 70.9128 7.224 70.5068 8.498L68.8828 13.552L65.7468 4.2H64.0808L64.8088 6.23C65.2008 7.28 65.2148 8.68 64.8648 9.744L63.6048 13.58L60.4688 4.2H58.8028L62.3728 14ZM73.3273 7V14H74.7693V7H73.3273ZM73.7613 4.424C74.4053 5.026 74.0693 6.09 73.3273 6.44L73.3413 6.58C75.8053 6.09 75.5393 4.312 73.7613 4.424ZM77.9292 13.006V7.308H79.4272V7H77.9292V5.11H77.7052C77.7052 5.852 77.6072 7 76.4592 7H75.6052V7.308H76.4592V11.998C76.4592 13.664 77.0892 14.14 78.0552 14.14C78.8532 14.14 79.4412 13.734 80.0712 13.258L79.9452 13.034C79.7072 13.286 79.0212 13.72 78.5172 13.72C78.1812 13.72 77.9292 13.538 77.9292 13.006ZM84.6646 7.63C85.4766 7.63 85.8826 8.232 85.8826 9.352V14H87.3246V9.786C87.3246 8.022 86.5966 6.916 85.1126 6.916C84.0206 6.916 83.0686 7.826 82.4806 8.904V4.186H81.0246V14H82.4806V9.436C82.9286 8.358 83.9366 7.63 84.6646 7.63ZM93.8823 4.508C94.9743 5.628 95.6883 7.434 95.6883 9.016V10.276C95.6883 12.572 94.2323 13.692 92.8323 13.692C91.5863 13.692 90.3823 12.768 90.3823 11.004V4.2H88.8983V10.29C88.8983 12.95 90.3263 14.14 92.5243 14.14C94.1623 14.14 95.9963 12.95 95.9963 10.29V4.2H93.5323L93.8823 4.508ZM100.252 6.86C98.2643 6.86 97.3123 7.728 97.3123 8.974C97.3123 11.452 102.394 10.57 102.394 12.712C102.394 13.37 101.666 13.846 100.826 13.846C99.8743 13.846 98.7543 13.244 98.3623 11.578C97.5503 11.676 97.1863 12.012 97.1863 12.418C97.1863 13.174 98.4883 14.154 100.518 14.154C102.548 14.154 103.472 13.272 103.472 12.082C103.472 9.534 98.3623 10.43 98.3623 8.246C98.3623 7.574 99.1043 7.126 99.8743 7.126C100.784 7.126 101.722 7.728 101.61 9.226C102.576 9.156 102.996 8.764 102.996 8.33C102.996 7.658 102.03 6.86 100.252 6.86Z" fill="#28425B"/>
<circle cx="11.92" cy="9.20505" r="8.4" fill="#EF7760"/>
<path d="M17.721 6.83006C17.721 6.72425 17.635 6.638 17.529 6.638C17.423 6.638 17.3369 6.72425 17.3369 6.83006V7.58448H17.7209L17.721 6.83006Z" fill="#BACBF6"/>
<path d="M17.3369 8.72262C17.3369 8.82842 17.4229 8.91468 17.529 8.91468C17.6349 8.91468 17.721 8.82843 17.721 8.72262V7.9682H17.3371L17.3369 8.72262Z" fill="#BACBF6"/>
<path d="M16.5827 7.58435C16.4767 7.58435 16.3906 7.6706 16.3906 7.77641C16.3906 7.88221 16.4766 7.96846 16.5827 7.96846H17.3371V7.58449L16.5827 7.58435Z" fill="#BACBF6"/>
<path d="M18.4752 7.58433H17.7211V7.9683H18.4752C18.5811 7.9683 18.6673 7.88205 18.6673 7.77624C18.6673 7.67057 18.581 7.58432 18.4752 7.58432V7.58433Z" fill="#BACBF6"/>
<path d="M6.58125 9.23762C6.58125 9.13182 6.49527 9.04556 6.3892 9.04556C6.28326 9.04556 6.19714 9.13181 6.19714 9.23762V9.99204H6.58111L6.58125 9.23762Z" fill="#C7B9FF"/>
<path d="M7.33508 9.99188H6.58093V10.3665H6.19697V9.99188H5.44254C5.33661 9.99188 5.25049 10.0781 5.25049 10.1839C5.25049 10.2897 5.33647 10.376 5.44254 10.376H6.19697V11.1208C6.19697 11.2266 6.28295 11.3128 6.38902 11.3128C6.49496 11.3128 6.58108 11.2266 6.58108 11.1208V10.376H7.33522C7.44116 10.376 7.52728 10.2897 7.52728 10.1839C7.52715 10.078 7.44116 9.99188 7.33509 9.99188H7.33508Z" fill="#C7B9FF"/>
<path d="M12 0.658661C7.28885 0.658661 3.45605 4.49146 3.45605 9.20266C3.45605 13.9139 7.28885 17.7467 12 17.7467C16.7112 17.7467 20.544 13.9139 20.544 9.20266C20.544 4.49146 16.7112 0.658661 12 0.658661V0.658661ZM12 17.3627C7.50074 17.3627 3.84005 13.702 3.84005 9.20266C3.84005 4.70335 7.50074 1.04266 12 1.04266C16.4994 1.04266 20.16 4.70335 20.16 9.20266C20.16 13.702 16.4994 17.3627 12 17.3627Z" fill="#EF7760"/>
<path d="M15.0521 9.45498C15.0468 9.45417 14.9162 9.43824 14.7192 9.43824C14.2977 9.43824 13.5152 9.5135 13.0117 10.0169C12.3975 10.6311 12.418 11.6469 12.441 11.9612L12.1921 12.2102V9.50896C13.8425 9.40891 15.1557 8.03841 15.1557 6.36324V4.74431C15.1557 4.63837 15.0699 4.55225 14.9637 4.55225C14.5584 4.55225 14.1719 4.63181 13.8155 4.77176C13.5364 3.1772 12.1586 2.35273 12.097 2.31684C12.0891 2.31228 12.0802 2.31161 12.0721 2.3084C12.0604 2.30358 12.049 2.29875 12.0367 2.29634C12.0244 2.29407 12.0125 2.29407 12.0003 2.29407C11.9878 2.29407 11.9759 2.29407 11.9636 2.29634C11.9511 2.29889 11.9397 2.30358 11.9281 2.3084C11.92 2.31161 11.9113 2.31228 11.9037 2.31684C11.8421 2.35273 10.4637 3.17771 10.1847 4.77176C9.82833 4.63194 9.4421 4.55252 9.03684 4.55252C8.93063 4.55252 8.84479 4.6385 8.84479 4.74457V6.36351C8.84479 8.03868 10.1578 9.40918 11.8085 9.50922V14.0109L11.5596 13.7621C11.5825 13.4478 11.603 12.4321 10.989 11.8179C10.4855 11.3143 9.7031 11.2391 9.28149 11.2391C9.08448 11.2391 8.95417 11.2551 8.94855 11.2559C8.86136 11.2669 8.79265 11.3356 8.78194 11.4228C8.77524 11.4763 8.62645 12.7454 9.34416 13.4629C9.84761 13.9665 10.6297 14.0416 11.0515 14.0416C11.1494 14.0416 11.2307 14.0377 11.2884 14.0336L11.8079 14.5536V15.9224C11.8079 16.0283 11.8937 16.1144 12 16.1144C12.1062 16.1144 12.192 16.0284 12.192 15.9224V12.7531L12.7123 12.2328C12.7702 12.2368 12.8515 12.2408 12.9492 12.2408C13.3707 12.2408 14.1531 12.1655 14.6566 11.6621C15.374 10.9446 15.2255 9.67553 15.2188 9.62194C15.2077 9.53449 15.1391 9.46578 15.052 9.4548L15.0521 9.45498ZM10.6694 12.8722C10.5943 12.797 10.4729 12.797 10.3979 12.8722C10.3228 12.9473 10.3228 13.0686 10.3979 13.1436L10.9076 13.6534C10.5281 13.6376 9.97376 13.5498 9.61496 13.1911C9.16147 12.7376 9.13856 11.9569 9.1517 11.6254C9.47272 11.6127 10.2573 11.6294 10.7169 12.0891C11.0721 12.4442 11.1619 12.9976 11.1784 13.3811L10.6694 12.8722ZM14.7717 4.94291V6.36337C14.7717 7.82719 13.6311 9.02935 12.1919 9.12834V7.70788C12.1921 6.24419 13.3325 5.04203 14.7717 4.94291ZM11.808 9.12816C10.3689 9.02906 9.22826 7.82692 9.22826 6.36319V4.94274C10.6676 5.04184 11.808 6.24398 11.808 7.70771V9.12816ZM12 6.63429C11.7365 5.90894 11.2171 5.30558 10.548 4.9389C10.7225 3.68894 11.6912 2.9254 12.0003 2.71194C12.3094 2.92435 13.2767 3.68438 13.4518 4.93917C12.7828 5.30586 12.2636 5.90908 12 6.63429ZM14.385 11.3904C14.0259 11.7495 13.4716 11.8376 13.0919 11.8531L13.6019 11.343C13.6771 11.2679 13.6771 11.1465 13.6019 11.0715C13.5268 10.9964 13.4055 10.9964 13.3305 11.0715L12.8215 11.5804C12.838 11.1969 12.9279 10.6436 13.283 10.2884C13.6887 9.88276 14.3569 9.82221 14.719 9.82221C14.7672 9.82221 14.811 9.82342 14.8488 9.82489C14.8622 10.1557 14.8402 10.9351 14.385 11.3904Z" fill="#F8CDDB"/>
</svg>
