<?xml version="1.0" encoding="UTF-8" standalone="no"?>
<svg
   width="203"
   height="203"
   viewBox="0 0 203 203"
   fill="none"
   version="1.1"
   id="svg20"
   sodipodi:docname="logo_large.svg"
   inkscape:version="1.1.2 (b8e25be833, 2022-02-05)"
   xmlns:inkscape="http://www.inkscape.org/namespaces/inkscape"
   xmlns:sodipodi="http://sodipodi.sourceforge.net/DTD/sodipodi-0.dtd"
   xmlns="http://www.w3.org/2000/svg"
   xmlns:svg="http://www.w3.org/2000/svg">
  <defs
     id="defs24" />
  <sodipodi:namedview
     id="namedview22"
     pagecolor="#ffffff"
     bordercolor="#666666"
     borderopacity="1.0"
     inkscape:pageshadow="2"
     inkscape:pageopacity="0.0"
     inkscape:pagecheckerboard="0"
     showgrid="false"
     inkscape:zoom="3.5418719"
     inkscape:cx="101.5"
     inkscape:cy="101.35883"
     inkscape:window-width="2560"
     inkscape:window-height="1506"
     inkscape:window-x="-11"
     inkscape:window-y="-11"
     inkscape:window-maximized="1"
     inkscape:current-layer="svg20" />
  <circle
     cx="100.609"
     cy="102.53842"
     r="70.898697"
     fill="#ef7760"
     id="circle2" />
  <path
     d="m 149.57,82.493519 c 0,-0.893 -0.725,-1.621 -1.621,-1.621 -0.894,0 -1.621,0.728 -1.621,1.621 v 6.3676 h 3.241 z"
     fill="#bacbf6"
     id="path4" />
  <path
     d="m 146.329,98.467419 c 0,0.893 0.726,1.621001 1.621,1.621001 0.894,0 1.621,-0.727901 1.621,-1.621001 v -6.3675 h -3.241 z"
     fill="#bacbf6"
     id="path6" />
  <path
     d="m 139.963,88.859919 c -0.894,0 -1.621,0.728 -1.621,1.621 0,0.893 0.726,1.621 1.621,1.621 h 6.367 v -3.2408 z"
     fill="#bacbf6"
     id="path8" />
  <path
     d="m 155.937,88.859919 h -6.366 v 3.2408 h 6.366 c 0.894,0 1.621,-0.7279 1.621,-1.621 0,-0.8918 -0.728,-1.6198 -1.621,-1.6198 z"
     fill="#bacbf6"
     id="path10" />
  <path
     d="m 55.5471,102.81402 c 0,-0.8931 -0.7257,-1.621 -1.621,-1.621 -0.8942,0 -1.621,0.7279 -1.621,1.621 v 6.3675 h 3.2408 z"
     fill="#c7b9ff"
     id="path12" />
  <path
     d="m 61.9106,109.18042 h -6.3653 v 3.1618 h -3.2408 v -3.1618 h -6.3676 c -0.8941,0 -1.621,0.728 -1.621,1.621 0,0.893 0.7257,1.621 1.621,1.621 h 6.3676 v 6.2862 c 0,0.893 0.7257,1.621 1.621,1.621 0.8941,0 1.621,-0.7279 1.621,-1.621 v -6.2862 h 6.3653 c 0.8941,0 1.621,-0.728 1.621,-1.621 -0.0012,-0.8941 -0.7269,-1.621 -1.6222,-1.621 z"
     fill="#c7b9ff"
     id="path14" />
  <path
     d="m 101.284,30.404949 c -39.7641,0 -72.1142,32.35007 -72.1142,72.114171 0,39.7645 32.3501,72.1145 72.1142,72.1145 39.764,0 72.114,-32.35 72.114,-72.1145 0,-39.764101 -32.35,-72.114171 -72.114,-72.114171 z m 0,140.986671 c -37.9758,0 -68.8731,-30.897 -68.8731,-68.8725 0,-37.975701 30.8973,-68.873091 68.8731,-68.873091 37.976,0 68.873,30.89739 68.873,68.873091 0,37.9755 -30.897,68.8725 -68.873,68.8725 z"
     fill="#ef7760"
     id="path16" />
  <path
     d="m 127.045,104.64862 c -0.045,-0.007 -1.148,-0.1413 -2.81,-0.1413 -3.558,0 -10.163,0.6353 -14.412,4.8845 -5.184,5.184 -5.011,13.7569 -4.817,16.4098 l -2.101,2.102 v -22.7994 c 13.93,-0.8444 25.014,-12.411901 25.014,-26.550801 v -13.6644 c 0,-0.8941 -0.724,-1.621 -1.621,-1.621 -3.42,0 -6.683,0.6715 -9.69,1.8527 -2.356,-13.4586 -13.986,-20.4174 -14.506,-20.7203 -0.066,-0.0385 -0.141,-0.0441 -0.21,-0.0713 -0.098,-0.0406 -0.194,-0.0813 -0.298,-0.1017 -0.104,-0.0192 -0.205,-0.0192 -0.308,-0.0192 -0.105,0 -0.206,0 -0.31,0.0192 -0.105,0.0215 -0.201,0.0611 -0.299,0.1017 -0.068,0.0272 -0.141,0.0328 -0.206,0.0713 -0.5199,0.3029 -12.154,7.2661 -14.5087,20.7203 -3.0081,-1.1801 -6.268,-1.8504 -9.6885,-1.8504 -0.8964,0 -1.621,0.7257 -1.621,1.621 v 13.6643 c 0,14.139 11.0825,25.706401 25.0145,26.550901 v 37.9961 l -2.1003,-2.101 c 0.1933,-2.653 0.3662,-11.226 -4.8168,-16.4095 -4.2493,-4.2505 -10.853,-4.8845 -14.4115,-4.8845 -1.6628,0 -2.7627,0.1345 -2.8102,0.1413 -0.7359,0.0927 -1.3158,0.6726 -1.4062,1.4085 -0.0565,0.4521 -1.3124,11.1642 4.7453,17.2192 4.2493,4.251 10.8507,4.885 14.4104,4.885 0.8263,0 1.5125,-0.033 1.9997,-0.068 l 4.3847,4.389 v 11.553 c 0,0.894 0.7246,1.621 1.6206,1.621 0.897,0 1.621,-0.726 1.621,-1.621 v -26.75 l 4.392,-4.392 c 0.488,0.034 1.175,0.068 2,0.068 3.557,0 10.161,-0.635 14.41,-4.8843 6.056,-6.0557 4.802,-16.7671 4.745,-17.2195 -0.093,-0.7381 -0.672,-1.318 -1.407,-1.4107 z m -36.992,28.842 c -0.6342,-0.634 -1.6583,-0.634 -2.2913,0 -0.6342,0.634 -0.6342,1.658 0,2.291 l 4.3022,4.303 c -3.2035,-0.134 -7.8822,-0.874 -10.9106,-3.902 -3.8276,-3.828 -4.0209,-10.417 -3.9101,-13.2147 2.7096,-0.1073 9.3314,0.034 13.2109,3.9137 2.9977,2.997 3.7562,7.668 3.8953,10.905 z m 34.625,-66.925301 v 11.9891 c 0,12.3552 -9.627,22.501801 -21.774,23.337201 V 89.902519 c 0.001,-12.354 9.626,-22.5006 21.774,-23.3372 z M 99.6631,101.89022 C 87.5168,101.05372 77.8894,90.907319 77.8894,78.553019 v -11.9892 c 12.1483,0.8365 21.7737,10.983 21.7737,23.3373 z m 1.6209,-21.049101 c -2.2245,-6.1222 -6.6082,-11.2147 -12.2558,-14.3097 1.4729,-10.55 9.6491,-16.9945 12.2578,-18.7962 2.609,1.7928 10.774,8.2077 12.251,18.7985 -5.646,3.095 -10.028,8.1864 -12.253,14.3074 z m 20.13,40.143101 c -3.031,3.0307 -7.709,3.7744 -10.914,3.9054 l 4.305,-4.3056 c 0.634,-0.6341 0.634,-1.6583 0,-2.2913 -0.635,-0.6342 -1.659,-0.6342 -2.292,0 l -4.295,4.2956 c 0.139,-3.2376 0.897,-7.9071 3.895,-10.9051 3.424,-3.424 9.064,-3.935 12.12,-3.935 0.407,0 0.777,0.0101 1.096,0.0226 0.113,2.7921 -0.073,9.3701 -3.915,13.2134 z"
     fill="#f8cddb"
     id="path18" />
</svg>
