<svg width="16" height="13" viewBox="0 0 16 13" fill="none" xmlns="http://www.w3.org/2000/svg">
<path d="M2.6 0H13.4C14.7864 0 15.9194 1.08516 15.9959 2.45246L16 2.6V10.2C16 11.5864 14.9148 12.7194 13.5475 12.7959L13.4 12.8H2.6C1.21358 12.8 0.0806001 11.7148 0.00411205 10.3475L0 10.2V2.6C0 1.21358 1.08516 0.0805999 2.45246 0.00411186L2.6 0H13.4H2.6ZM14.8 4.2984L8.27944 7.73096C8.12952 7.80984 7.95448 7.82112 7.79744 7.7648L7.72056 7.73096L1.2 4.2992V10.2C1.2 10.9346 1.76569 11.537 2.48518 11.5954L2.6 11.6H13.4C14.1346 11.6 14.737 11.0343 14.7954 10.3148L14.8 10.2V4.2984ZM13.4 1.2H2.6C1.86546 1.2 1.26305 1.76569 1.20464 2.48518L1.2 2.6V2.9432L8 6.522L14.8 2.9424V2.6C14.8 1.86546 14.2343 1.26305 13.5148 1.20464L13.4 1.2Z" fill="#28425B"/>
</svg>
