<svg width="20" height="20" viewBox="0 0 20 20" fill="none" xmlns="http://www.w3.org/2000/svg">
<path d="M0.896768 18.1397L1.01836 18.1687L0.896766 18.1397C0.832426 18.41 0.912887 18.6943 1.10932 18.8907L1.10934 18.8907C1.30577 19.0871 1.59005 19.1676 1.86034 19.1032L6.00144 18.1173C6.52723 17.9921 7.00795 17.7235 7.39012 17.3413L18.1452 6.58575C19.4516 5.27928 19.4516 3.16122 18.1451 1.85483C16.8385 0.548338 14.7201 0.548398 13.4136 1.85497L2.65854 12.6105L2.74693 12.6989L2.65854 12.6105C2.27649 12.9926 2.00795 13.4731 1.8828 13.9988L0.896768 18.1397ZM17.0138 5.4545L17.1022 5.54289L17.0138 5.4545L16.3 6.16835L13.8313 3.69991L14.545 2.98621L14.4566 2.89783L14.545 2.98621C15.2267 2.3045 16.332 2.30446 17.0137 2.98614C17.6954 3.66776 17.6954 4.77286 17.0138 5.4545ZM2.75437 17.2457L3.43929 14.3693C3.49586 14.1317 3.61726 13.9145 3.78997 13.7417L12.7 4.83127L15.1687 7.29972L6.25869 16.2101L6.25868 16.2101C6.08592 16.3829 5.86858 16.5043 5.63085 16.5609C5.63085 16.5609 5.63084 16.5609 5.63083 16.5609L2.75437 17.2457Z" fill="#28425B" stroke="#28425B" stroke-width="0.25"/>
</svg>
