<svg width="16" height="16" viewBox="0 0 16 16" fill="none" xmlns="http://www.w3.org/2000/svg">
<path d="M6.44445 0C10.0037 0 12.8889 2.88528 12.8889 6.44445C12.8889 7.98392 12.3491 9.39726 11.4485 10.5056L15.8047 14.862C16.0651 15.1223 16.0651 15.5444 15.8047 15.8047C15.5681 16.0414 15.1977 16.063 14.9367 15.8693L14.862 15.8047L10.5056 11.4485C9.39726 12.3491 7.98392 12.8889 6.44445 12.8889C2.88528 12.8889 0 10.0037 0 6.44445C0 2.88528 2.88528 0 6.44445 0ZM6.44445 1.33334C3.62166 1.33334 1.33334 3.62166 1.33334 6.44445C1.33334 9.26721 3.62166 11.5556 6.44445 11.5556C9.26721 11.5556 11.5556 9.26721 11.5556 6.44445C11.5556 3.62166 9.26721 1.33334 6.44445 1.33334Z" fill="#28425B"/>
</svg>
