<svg width="24" height="24" viewBox="0 0 24 24" fill="none" xmlns="http://www.w3.org/2000/svg">
<path d="M12.0137 0C12.9544 0.0104123 13.8915 0.114782 14.8099 0.311435C15.2107 0.397281 15.5106 0.718168 15.5561 1.11011L15.7742 2.98931C15.8729 3.85215 16.6317 4.50566 17.5362 4.50657C17.7793 4.50694 18.0198 4.45833 18.2445 4.36288L20.0398 3.60562C20.4132 3.44812 20.8495 3.53399 21.1281 3.81985C22.4256 5.15034 23.3918 6.74605 23.9542 8.48689C24.0755 8.86228 23.9359 9.27021 23.6064 9.50341L22.0151 10.6297C21.5611 10.9499 21.2931 11.4585 21.2931 11.9994C21.2931 12.5402 21.5611 13.0488 22.016 13.3698L23.6088 14.4964C23.9384 14.7295 24.0781 15.1375 23.9568 15.513C23.3946 17.2536 22.4289 18.8492 21.1322 20.1799C20.8537 20.4657 20.4179 20.5518 20.0445 20.3946L18.2418 19.6364C17.7261 19.4196 17.1338 19.4514 16.6465 19.7219C16.1591 19.9923 15.8348 20.4692 15.7728 21.0065L15.5562 22.8855C15.5115 23.2729 15.2181 23.5917 14.8231 23.6819C12.9666 24.106 11.0322 24.106 9.17557 23.6819C8.78061 23.5917 8.48726 23.2729 8.44258 22.8855L8.22619 21.0093C8.16262 20.473 7.83778 19.9976 7.3508 19.728C6.86383 19.4585 6.27253 19.4269 5.75853 19.6424L3.95552 20.4008C3.58207 20.558 3.14601 20.4718 2.86754 20.1858C1.57016 18.8536 0.604422 17.256 0.0430091 15.5136C-0.0779154 15.1384 0.0617999 14.7306 0.391195 14.4976L1.9849 13.3702C2.43884 13.05 2.70692 12.5414 2.70692 12.0006C2.70692 11.4597 2.43884 10.9512 1.9843 10.6305L0.391606 9.50507C0.0617105 9.27196 -0.0781333 8.86375 0.043227 8.48812C0.605614 6.74728 1.57186 5.15157 2.86926 3.82108C3.14801 3.53522 3.58427 3.44935 3.95766 3.60685L5.75266 4.36397C6.26914 4.58162 6.86292 4.54875 7.35253 4.27409C7.84002 4.00258 8.16456 3.5252 8.22722 2.98787L8.44522 1.11011C8.49075 0.717971 8.79082 0.396973 9.19194 0.311311C10.1114 0.114979 11.0494 0.0106462 12.0137 0ZM12.0138 1.84604C11.4319 1.85261 10.8515 1.90084 10.2776 1.99018L10.138 3.19285C10.0076 4.31223 9.33195 5.30588 8.31983 5.86959C7.30151 6.44084 6.05995 6.50959 4.97968 6.05438L3.82826 5.5687C3.09517 6.42307 2.51167 7.3863 2.1007 8.42055L3.12331 9.14315C4.07032 9.81123 4.62961 10.8723 4.62961 12.0006C4.62961 13.1289 4.07032 14.1899 3.12431 14.8573L2.10008 15.5818C2.51069 16.6179 3.09429 17.5829 3.82789 18.4389L4.98808 17.9509C6.06234 17.5006 7.29545 17.5664 8.311 18.1285C9.32654 18.6906 10.004 19.6821 10.1369 20.8033L10.2765 22.0142C11.4169 22.2004 12.5818 22.2004 13.7222 22.0142L13.8618 20.8034C13.991 19.6826 14.6676 18.6877 15.6845 18.1235C16.7012 17.5592 17.9369 17.493 19.0131 17.9453L20.1723 18.4329C20.9052 17.5783 21.4886 16.6148 21.8995 15.5803L20.8767 14.8568C19.9297 14.1887 19.3704 13.1277 19.3704 11.9994C19.3704 10.871 19.9297 9.80999 20.8755 9.14276L21.897 8.41982C21.486 7.38539 20.9024 6.42197 20.1692 5.56747L19.0201 6.05216C18.5517 6.25111 18.0453 6.35349 17.5337 6.35273C15.6499 6.35083 14.0688 4.989 13.8632 3.19241L13.7236 1.98979C13.1526 1.90056 12.5782 1.85246 12.0138 1.84604ZM11.9977 7.38457C14.6524 7.38457 16.8044 9.45095 16.8044 12C16.8044 14.549 14.6524 16.6154 11.9977 16.6154C9.34297 16.6154 7.19092 14.549 7.19092 12C7.19092 9.45095 9.34297 7.38457 11.9977 7.38457ZM11.9977 9.23073C10.4048 9.23073 9.11361 10.4705 9.11361 12C9.11361 13.5294 10.4048 14.7693 11.9977 14.7693C13.5904 14.7693 14.8817 13.5294 14.8817 12C14.8817 10.4705 13.5904 9.23073 11.9977 9.23073Z" fill="#28425B"/>
</svg>
